<svg width="24" height="24" viewBox="0 0 24 24" fill="none" xmlns="http://www.w3.org/2000/svg">
<g clip-path="url(#clip0_1515_13519)">
<path d="M12 6.81818C15.4455 6.81818 18.5182 8.75455 20.0182 11.8182C18.5182 14.8818 15.4545 16.8182 12 16.8182C8.54545 16.8182 5.48182 14.8818 3.98182 11.8182C5.48182 8.75455 8.55455 6.81818 12 6.81818ZM12 5C7.45455 5 3.57273 7.82727 2 11.8182C3.57273 15.8091 7.45455 18.6364 12 18.6364C16.5455 18.6364 20.4273 15.8091 22 11.8182C20.4273 7.82727 16.5455 5 12 5ZM12 9.54545C13.2545 9.54545 14.2727 10.5636 14.2727 11.8182C14.2727 13.0727 13.2545 14.0909 12 14.0909C10.7455 14.0909 9.72727 13.0727 9.72727 11.8182C9.72727 10.5636 10.7455 9.54545 12 9.54545ZM12 7.72727C9.74545 7.72727 7.90909 9.56364 7.90909 11.8182C7.90909 14.0727 9.74545 15.9091 12 15.9091C14.2545 15.9091 16.0909 14.0727 16.0909 11.8182C16.0909 9.56364 14.2545 7.72727 12 7.72727Z" fill="#7887A6"/>
</g>
<defs>
<clipPath id="clip0_1515_13519">
<rect width="24" height="24" fill="white"/>
</clipPath>
</defs>
</svg>
