<svg width="24" height="28" viewBox="0 0 24 28" fill="none" xmlns="http://www.w3.org/2000/svg">
<path d="M20.0005 27.3327C18.8894 27.3327 17.9449 26.9438 17.1672 26.166C16.3894 25.3882 16.0005 24.4438 16.0005 23.3327C16.0005 23.1771 16.0116 23.0158 16.0338 22.8487C16.056 22.6816 16.0894 22.5318 16.1338 22.3993L6.73382 16.9327C6.35604 17.266 5.93382 17.5273 5.46715 17.7167C5.00049 17.906 4.5116 18.0002 4.00049 17.9993C2.88938 17.9993 1.94493 17.6105 1.16716 16.8327C0.389377 16.0549 0.000488281 15.1105 0.000488281 13.9993C0.000488281 12.8882 0.389377 11.9438 1.16716 11.166C1.94493 10.3882 2.88938 9.99935 4.00049 9.99935C4.5116 9.99935 5.00049 10.094 5.46715 10.2833C5.93382 10.4727 6.35604 10.7336 6.73382 11.066L16.1338 5.59935C16.0894 5.46602 16.056 5.31624 16.0338 5.15002C16.0116 4.98379 16.0005 4.82246 16.0005 4.66602C16.0005 3.5549 16.3894 2.61046 17.1672 1.83268C17.9449 1.0549 18.8894 0.666016 20.0005 0.666016C21.1116 0.666016 22.056 1.0549 22.8338 1.83268C23.6116 2.61046 24.0005 3.5549 24.0005 4.66602C24.0005 5.77713 23.6116 6.72157 22.8338 7.49935C22.056 8.27713 21.1116 8.66602 20.0005 8.66602C19.4894 8.66602 19.0005 8.57179 18.5338 8.38335C18.0672 8.1949 17.6449 7.93357 17.2672 7.59935L7.86715 13.066C7.9116 13.1993 7.94493 13.3496 7.96716 13.5167C7.98938 13.6838 8.00049 13.8447 8.00049 13.9993C8.00049 14.1549 7.98938 14.3162 7.96716 14.4833C7.94493 14.6505 7.9116 14.8002 7.86715 14.9327L17.2672 20.3993C17.6449 20.066 18.0672 19.8051 18.5338 19.6167C19.0005 19.4282 19.4894 19.3336 20.0005 19.3327C21.1116 19.3327 22.056 19.7216 22.8338 20.4993C23.6116 21.2771 24.0005 22.2216 24.0005 23.3327C24.0005 24.4438 23.6116 25.3882 22.8338 26.166C22.056 26.9438 21.1116 27.3327 20.0005 27.3327ZM20.0005 5.99935C20.3783 5.99935 20.6952 5.87135 20.9512 5.61535C21.2072 5.35935 21.3347 5.0429 21.3338 4.66602C21.3338 4.28824 21.2058 3.97135 20.9498 3.71535C20.6938 3.45935 20.3774 3.33179 20.0005 3.33268C19.6227 3.33268 19.3058 3.46068 19.0498 3.71668C18.7938 3.97268 18.6663 4.28913 18.6672 4.66602C18.6672 5.04379 18.7952 5.36068 19.0512 5.61668C19.3072 5.87268 19.6236 6.00024 20.0005 5.99935ZM4.00049 15.3327C4.37827 15.3327 4.69515 15.2047 4.95115 14.9487C5.20715 14.6927 5.33471 14.3762 5.33382 13.9993C5.33382 13.6216 5.20582 13.3047 4.94982 13.0487C4.69382 12.7927 4.37738 12.6651 4.00049 12.666C3.62271 12.666 3.30582 12.794 3.04982 13.05C2.79382 13.306 2.66627 13.6225 2.66716 13.9993C2.66716 14.3771 2.79516 14.694 3.05116 14.95C3.30716 15.206 3.6236 15.3336 4.00049 15.3327ZM20.0005 24.666C20.3783 24.666 20.6952 24.538 20.9512 24.282C21.2072 24.026 21.3347 23.7096 21.3338 23.3327C21.3338 22.9549 21.2058 22.638 20.9498 22.382C20.6938 22.126 20.3774 21.9985 20.0005 21.9993C19.6227 21.9993 19.3058 22.1273 19.0498 22.3834C18.7938 22.6393 18.6663 22.9558 18.6672 23.3327C18.6672 23.7105 18.7952 24.0273 19.0512 24.2833C19.3072 24.5393 19.6236 24.6669 20.0005 24.666Z" fill="#7887A6"/>
</svg>
