<svg width="34" height="26" viewBox="0 0 34 26" fill="none" xmlns="http://www.w3.org/2000/svg">
<path d="M30.7129 7.42188C31.2109 7.69857 31.6647 8.03613 32.0742 8.43457C32.4837 8.83301 32.8268 9.27572 33.1035 9.7627C33.3802 10.2497 33.6016 10.7643 33.7676 11.3066C33.9336 11.849 34.0111 12.4134 34 13H31.875C31.875 12.4245 31.7643 11.8766 31.543 11.3564C31.3216 10.8363 31.0173 10.388 30.6299 10.0117C30.2425 9.63542 29.7887 9.33105 29.2686 9.09863C28.7484 8.86621 28.2005 8.75 27.625 8.75C27.0384 8.75 26.4906 8.86068 25.9814 9.08203C25.4723 9.30339 25.0241 9.60775 24.6367 9.99512C24.2493 10.3825 23.945 10.8363 23.7236 11.3564C23.5023 11.8766 23.3861 12.4245 23.375 13C23.375 14.0072 23.1481 14.9645 22.6943 15.8721C22.2406 16.7796 21.6042 17.5322 20.7852 18.1299C21.5046 18.4951 22.152 18.9434 22.7275 19.4746C23.3031 20.0059 23.8011 20.6035 24.2217 21.2676C24.6423 21.9316 24.9577 22.64 25.168 23.3926C25.3783 24.1452 25.4889 24.931 25.5 25.75H23.375C23.375 24.8757 23.209 24.0511 22.877 23.2764C22.5449 22.5016 22.0856 21.8265 21.499 21.251C20.9124 20.6755 20.2373 20.2217 19.4736 19.8896C18.71 19.5576 17.8854 19.3861 17 19.375C16.1257 19.375 15.3011 19.541 14.5264 19.873C13.7516 20.2051 13.0765 20.6644 12.501 21.251C11.9255 21.8376 11.4717 22.5127 11.1396 23.2764C10.8076 24.04 10.6361 24.8646 10.625 25.75H8.5C8.5 24.9421 8.61068 24.1618 8.83203 23.4092C9.05339 22.6566 9.36882 21.9482 9.77832 21.2842C10.1878 20.6201 10.6803 20.0225 11.2559 19.4912C11.8314 18.96 12.4844 18.5062 13.2148 18.1299C12.4069 17.5322 11.776 16.7796 11.3223 15.8721C10.8685 14.9645 10.6361 14.0072 10.625 13C10.625 12.4245 10.5143 11.8766 10.293 11.3564C10.0716 10.8363 9.76725 10.388 9.37988 10.0117C8.99251 9.63542 8.53874 9.33105 8.01855 9.09863C7.49837 8.86621 6.95052 8.75 6.375 8.75C5.78841 8.75 5.24056 8.86068 4.73145 9.08203C4.22233 9.30339 3.77409 9.60775 3.38672 9.99512C2.99935 10.3825 2.69499 10.8363 2.47363 11.3564C2.25228 11.8766 2.13607 12.4245 2.125 13H0C0 12.4245 0.077474 11.8656 0.232422 11.3232C0.38737 10.7809 0.60319 10.2663 0.879883 9.7793C1.15658 9.29232 1.50521 8.84961 1.92578 8.45117C2.34635 8.05273 2.80013 7.70964 3.28711 7.42188C2.92188 7.03451 2.63965 6.58626 2.44043 6.07715C2.24121 5.56803 2.13607 5.04232 2.125 4.5C2.125 3.92448 2.23568 3.37663 2.45703 2.85645C2.67839 2.33626 2.98275 1.88802 3.37012 1.51172C3.75749 1.13542 4.20573 0.831055 4.71484 0.598633C5.22396 0.366211 5.77734 0.25 6.375 0.25C6.95052 0.25 7.49837 0.360677 8.01855 0.582031C8.53874 0.803385 8.98698 1.10775 9.36328 1.49512C9.73958 1.88249 10.0439 2.33626 10.2764 2.85645C10.5088 3.37663 10.625 3.92448 10.625 4.5C10.625 5.04232 10.5254 5.56803 10.3262 6.07715C10.127 6.58626 9.83919 7.03451 9.46289 7.42188C10.3704 7.91992 11.112 8.60612 11.6875 9.48047C12.2852 8.59505 13.0488 7.89779 13.9785 7.38867C14.9082 6.87956 15.9154 6.625 17 6.625C18.0736 6.625 19.0752 6.87956 20.0049 7.38867C20.9346 7.89779 21.7038 8.59505 22.3125 9.48047C22.888 8.60612 23.6296 7.91992 24.5371 7.42188C24.1719 7.03451 23.8896 6.58626 23.6904 6.07715C23.4912 5.56803 23.3861 5.04232 23.375 4.5C23.375 3.92448 23.4857 3.37663 23.707 2.85645C23.9284 2.33626 24.2327 1.88802 24.6201 1.51172C25.0075 1.13542 25.4557 0.831055 25.9648 0.598633C26.474 0.366211 27.0273 0.25 27.625 0.25C28.2005 0.25 28.7484 0.360677 29.2686 0.582031C29.7887 0.803385 30.237 1.10775 30.6133 1.49512C30.9896 1.88249 31.2939 2.33626 31.5264 2.85645C31.7588 3.37663 31.875 3.92448 31.875 4.5C31.875 5.04232 31.7754 5.56803 31.5762 6.07715C31.377 6.58626 31.0892 7.03451 30.7129 7.42188ZM4.25 4.5C4.25 4.79883 4.30534 5.07552 4.41602 5.33008C4.52669 5.58464 4.67611 5.80599 4.86426 5.99414C5.05241 6.18229 5.2793 6.33724 5.54492 6.45898C5.81055 6.58073 6.08724 6.63607 6.375 6.625C6.67383 6.625 6.95052 6.56966 7.20508 6.45898C7.45964 6.34831 7.68099 6.19889 7.86914 6.01074C8.05729 5.82259 8.21224 5.5957 8.33398 5.33008C8.45573 5.06445 8.51107 4.78776 8.5 4.5C8.5 4.20117 8.44466 3.92448 8.33398 3.66992C8.22331 3.41536 8.07389 3.19401 7.88574 3.00586C7.69759 2.81771 7.4707 2.66276 7.20508 2.54102C6.93945 2.41927 6.66276 2.36393 6.375 2.375C6.07617 2.375 5.79948 2.43034 5.54492 2.54102C5.29036 2.65169 5.06901 2.80111 4.88086 2.98926C4.69271 3.17741 4.53776 3.4043 4.41602 3.66992C4.29427 3.93555 4.23893 4.21224 4.25 4.5ZM17 17.25C17.5755 17.25 18.1234 17.1393 18.6436 16.918C19.1637 16.6966 19.612 16.3923 19.9883 16.0049C20.3646 15.6175 20.6689 15.1693 20.9014 14.6602C21.1338 14.151 21.25 13.5977 21.25 13C21.25 12.4245 21.1393 11.8766 20.918 11.3564C20.6966 10.8363 20.3923 10.388 20.0049 10.0117C19.6175 9.63542 19.1637 9.33105 18.6436 9.09863C18.1234 8.86621 17.5755 8.75 17 8.75C16.4134 8.75 15.8656 8.86068 15.3564 9.08203C14.8473 9.30339 14.3991 9.60775 14.0117 9.99512C13.6243 10.3825 13.32 10.8363 13.0986 11.3564C12.8773 11.8766 12.7611 12.4245 12.75 13C12.75 13.5866 12.8607 14.1344 13.082 14.6436C13.3034 15.1527 13.6077 15.6009 13.9951 15.9883C14.3825 16.3757 14.8307 16.68 15.3398 16.9014C15.849 17.1227 16.4023 17.2389 17 17.25ZM25.5 4.5C25.5 4.79883 25.5553 5.07552 25.666 5.33008C25.7767 5.58464 25.9261 5.80599 26.1143 5.99414C26.3024 6.18229 26.5293 6.33724 26.7949 6.45898C27.0605 6.58073 27.3372 6.63607 27.625 6.625C27.9238 6.625 28.2005 6.56966 28.4551 6.45898C28.7096 6.34831 28.931 6.19889 29.1191 6.01074C29.3073 5.82259 29.4622 5.5957 29.584 5.33008C29.7057 5.06445 29.7611 4.78776 29.75 4.5C29.75 4.20117 29.6947 3.92448 29.584 3.66992C29.4733 3.41536 29.3239 3.19401 29.1357 3.00586C28.9476 2.81771 28.7207 2.66276 28.4551 2.54102C28.1895 2.41927 27.9128 2.36393 27.625 2.375C27.3262 2.375 27.0495 2.43034 26.7949 2.54102C26.5404 2.65169 26.319 2.80111 26.1309 2.98926C25.9427 3.17741 25.7878 3.4043 25.666 3.66992C25.5443 3.93555 25.4889 4.21224 25.5 4.5Z" fill="white"/>
</svg>
