<svg width="25" height="25" viewBox="0 0 25 25" fill="none" xmlns="http://www.w3.org/2000/svg">
<path d="M0.000488281 24.9994H5.00049L19.7472 10.2527L14.7472 5.25269L0.000488281 19.9994V24.9994ZM2.66716 21.106L14.7472 9.02602L15.9738 10.2527L3.89382 22.3327H2.66716V21.106ZM20.4938 1.38602C20.3705 1.26241 20.224 1.16435 20.0627 1.09744C19.9014 1.03053 19.7284 0.996094 19.5538 0.996094C19.3792 0.996094 19.2063 1.03053 19.045 1.09744C18.8837 1.16435 18.7372 1.26241 18.6138 1.38602L16.1738 3.82602L21.1738 8.82602L23.6138 6.38602C23.7374 6.26267 23.8355 6.11615 23.9024 5.95485C23.9693 5.79355 24.0037 5.62064 24.0037 5.44602C24.0037 5.27139 23.9693 5.09848 23.9024 4.93719C23.8355 4.77589 23.7374 4.62937 23.6138 4.50602L20.4938 1.38602Z" fill="#7887A6"/>
</svg>
